<svg id="Capa_1" data-name="Capa 1" xmlns="http://www.w3.org/2000/svg" xmlns:xlink="http://www.w3.org/1999/xlink" viewBox="0 0 25 12.04"><defs><style>.cls-1{fill:none;}.cls-2{opacity:0.58;}.cls-3{clip-path:url(#clip-path);}.cls-4{opacity:0.92;}.cls-5{fill:#303439;}.cls-6{fill:#ffce05;}</style><clipPath id="clip-path"><rect class="cls-1" x="-34.66" y="-657.32" width="599.14" height="428.14"/></clipPath></defs><g class="cls-4"><path class="cls-5" d="M3.16,3.49c0,.3-.25.47-.72.47H1.51V2.23H2.4c.45,0,.67.19.67.45a.41.41,0,0,1-.23.38A.44.44,0,0,1,3.16,3.49ZM2,2.58v.34h.34c.16,0,.25-.06.25-.17s-.09-.17-.25-.17Zm.67.85c0-.12-.09-.17-.25-.17H2v.35h.42C2.57,3.61,2.66,3.55,2.66,3.43Z"/><path class="cls-5" d="M3.66,2.23h.49V4H3.66Z"/><path class="cls-5" d="M6.13,3.58V4H4.74V2.23H6.1v.38H5.23V2.9H6v.37H5.23v.31Z"/><path class="cls-5" d="M8.3,2.23V4H7.9L7.13,3V4H6.65V2.23h.4l.77.92V2.23Z"/><path class="cls-5" d="M10.64,2.23,9.9,4H9.42L8.68,2.23h.53l.47,1.13.48-1.13Z"/><path class="cls-5" d="M12.38,3.58V4H11V2.23h1.36v.38h-.87V2.9h.77v.37h-.77v.31Z"/><path class="cls-5" d="M14.55,2.23V4h-.41L13.38,3V4H12.9V2.23h.4l.77.92V2.23Z"/><path class="cls-5" d="M15.14,2.23h.49V4h-.49Z"/><path class="cls-5" d="M16.22,2.23H17A.87.87,0,1,1,17,4h-.82ZM17,3.57a.45.45,0,0,0,.5-.47.46.46,0,0,0-.5-.48h-.31v.95Z"/><path class="cls-5" d="M20.82,3.27c0,.46-.23.71-.54.71a.37.37,0,0,1-.37-.21.43.43,0,0,1-.4.21A.57.57,0,0,1,19,3.36a.57.57,0,0,1,.55-.62.47.47,0,0,1,.35.14V2.76h.4v.76c0,.11,0,.15.11.15s.15-.11.15-.39a.81.81,0,0,0-.88-.81.85.85,0,0,0-.89.87.83.83,0,0,0,.88.86,1.09,1.09,0,0,0,.49-.11l.09.27a1.42,1.42,0,0,1-.58.12,1.14,1.14,0,1,1,0-2.28A1.09,1.09,0,0,1,20.82,3.27Zm-1,.09c0-.18-.1-.28-.24-.28s-.24.1-.24.28.1.29.24.29S19.86,3.55,19.86,3.36Z"/><path class="cls-5" d="M21.2,3.81l.16-.36a1.12,1.12,0,0,0,.57.17c.21,0,.29-.06.29-.15,0-.27-1-.07-1-.71,0-.31.25-.56.77-.56a1.3,1.3,0,0,1,.63.15l-.15.36A1,1,0,0,0,22,2.58c-.21,0-.28.07-.28.15,0,.27,1,.07,1,.71,0,.3-.25.56-.77.56A1.4,1.4,0,0,1,21.2,3.81Z"/></g><rect class="cls-5" x="7.26" y="5.43" width="2.94" height="4.04" transform="translate(-1.85 2.99) rotate(-17.63)"/><path class="cls-6" d="M8.19,6.89H7.34V6.27H9.83v.62H9V9.05H8.19Z"/><path class="cls-5" d="M10.16,8.8l.26-.58a1.8,1.8,0,0,0,.92.27c.33,0,.45-.09.45-.22,0-.44-1.58-.12-1.58-1.16,0-.49.41-.9,1.23-.9a2.15,2.15,0,0,1,1,.24L12.21,7a1.68,1.68,0,0,0-.77-.22c-.33,0-.45.12-.45.25,0,.43,1.58.11,1.58,1.14,0,.48-.41.9-1.23.9A2.26,2.26,0,0,1,10.16,8.8Z"/><path class="cls-5" d="M14.8,8.51H13.62l-.22.54h-.8l1.23-2.78h.77l1.23,2.78H15Zm-.23-.58L14.21,7l-.36.89Z"/><path class="cls-5" d="M17.72,6.31h-.11l-.36,0h-.51l-.43,0-.25,0V9.05h.78V8.32h.49c.76,0,1.24-.39,1.24-1A1,1,0,0,0,17.72,6.31ZM17.28,7.7h-.44V6.89h.44c.33,0,.49.15.49.41S17.61,7.7,17.28,7.7Z"/><path class="cls-5" d="M17.85,5.75h0l-1.73,0h0a1,1,0,0,1,.62-1h0V5.2a.15.15,0,0,0,.15.15h.18a.15.15,0,0,0,.15-.15V4.7h0A.94.94,0,0,1,17.85,5.75Z"/><path class="cls-5" d="M16.81,4.73V5.2a.06.06,0,0,0,.06.06h.18a.06.06,0,0,0,.06-.06V4.55a.06.06,0,0,0-.06-.06h-.18a.06.06,0,0,0-.06.06v.18Z"/><path class="cls-5" d="M18.09,6v.06a.13.13,0,0,1-.13.14H17.9l-.21,0H17.6l-.36,0h0a1.77,1.77,0,0,1-.46,0h0l-.43,0-.25,0h0a.13.13,0,0,1-.13-.14V6A.14.14,0,0,1,16,5.84H18A.14.14,0,0,1,18.09,6Z"/><rect class="cls-6" x="1.97" y="7.31" width="4.03" height="0.35"/><path class="cls-6" d="M1.56,8.29a.73.73,0,1,1,0-1.46.73.73,0,1,1,0,1.46Zm0-1.12A.39.39,0,1,0,2,7.56.4.4,0,0,0,1.56,7.17Z"/><rect class="cls-6" x="19.29" y="7.31" width="4.03" height="0.35"/><path class="cls-6" d="M23.74,8.29a.73.73,0,1,1,0-1.46.73.73,0,1,1,0,1.46Zm0-1.12a.39.39,0,0,0,0,.78.39.39,0,0,0,0-.78Z"/></svg>