<?xml version="1.0" encoding="UTF-8"?><svg id="Capa_1" xmlns="http://www.w3.org/2000/svg" viewBox="0 0 398.76 154.36"><defs><style>.cls-1,.cls-2{fill:#fff;}.cls-2{font-family:Montserrat-ExtraBold, Montserrat;font-size:34.74px;font-weight:700;opacity:.92;}.cls-3{fill:#ffce05;}.cls-4{letter-spacing:.1em;}.cls-5{letter-spacing:.09em;}.cls-6{letter-spacing:.1em;}.cls-7{fill:none;stroke:#ffce05;stroke-miterlimit:10;stroke-width:4.9px;}.cls-8{letter-spacing:.1em;}</style></defs><text class="cls-2" transform="translate(36.72 43.11)"><tspan class="cls-4" x="0" y="0">BIE</tspan><tspan class="cls-8" x="72.26" y="0">N</tspan><tspan class="cls-5" x="103.66" y="0">V</tspan><tspan class="cls-6" x="133.22" y="0">ENID@S </tspan></text><g><g><rect class="cls-1" x="119.94" y="63.74" width="41.26" height="56.77" transform="translate(-21.3 46.91) rotate(-17.63)"/><path class="cls-3" d="m133.06,84.27h-12.02v-8.77h35.04v8.77h-11.96v30.34h-11.07v-30.34Z"/><path class="cls-1" d="m160.76,111.09l3.63-8.16c3.46,2.29,8.38,3.86,12.91,3.86s6.37-1.28,6.37-3.18c0-6.2-22.24-1.68-22.24-16.21,0-6.99,5.7-12.69,17.32-12.69,5.09,0,10.34,1.17,14.2,3.41l-3.41,8.21c-3.74-2.01-7.43-3.02-10.84-3.02-4.64,0-6.32,1.56-6.32,3.52,0,5.98,22.19,1.51,22.19,15.93,0,6.82-5.7,12.63-17.32,12.63-6.43,0-12.8-1.73-16.48-4.3Z"/><path class="cls-1" d="m225.86,107.01h-16.54l-3.07,7.6h-11.29l17.27-39.12h10.9l17.33,39.12h-11.51l-3.07-7.6Zm-3.24-8.16l-5.03-12.52-5.03,12.52h10.06Z"/><path class="cls-1" d="m266.89,76.04l-.24.03-1.31.13-5.07.53-.18.03c-2.15.24-4.31.24-6.43.05l-.55-.08-6.04-.66-3.49-.39v38.93h11.05v-10.24h6.83c10.66,0,17.38-5.51,17.38-14.41,0-7.3-4.49-12.34-11.95-13.91Zm-6.12,19.61h-6.14v-11.45h6.14c4.59,0,6.88,2.13,6.88,5.75s-2.28,5.7-6.88,5.7Z"/><g><path class="cls-1" d="m268.79,68.22h0c-.01.07-.02.1-.02.1-18.35-.14-23.11-.18-24.29-.2-.18,0-.27,0-.32,0-.37-5.7,3.35-9.97,3.35-9.97,1.79-1.95,3.64-3.14,5.36-3.83.01,0,.02,0,.03-.01l-.03.05v6.11c0,1.16.95,2.11,2.11,2.11h2.46c1.16,0,2.11-.94,2.11-2.11v-6.92c.07.01.13.02.18.04.3.06.46.11.46.11,10.17,4.4,8.8,13.48,8.6,14.54Z"/><path class="cls-1" d="m254.1,53.89v6.57c0,.49.4.89.89.89h2.46c.5,0,.9-.4.9-.9v-9.08c0-.49-.4-.89-.9-.89h-2.46c-.49,0-.89.4-.89.89v2.51Z"/><path class="cls-1" d="m272.14,71.58v.85c0,1.12-.81,2.03-1.81,2.03l-.87.09-2.92.31-1.3.14-5.07.54-.19.02c-2.13.22-4.29.24-6.42.04-.19-.02-.37-.04-.56-.06l-6.02-.67-3.54-.39h-.07c-1,0-1.8-.91-1.8-2.03v-.85c0-1.12.81-2.03,1.8-2.03h26.96c1,0,1.81.91,1.81,2.03Z"/></g></g><g><line class="cls-7" x1="102.31" y1="92.6" x2="45.65" y2="92.6"/><circle class="cls-7" cx="39.88" cy="93.65" r="7.87"/></g><g><line class="cls-7" x1="345.73" y1="92.6" x2="289.07" y2="92.6"/><path class="cls-7" d="m359.36,93.65c0,4.35-3.52,7.87-7.87,7.87s-7.87-3.52-7.87-7.87,3.52-7.87,7.87-7.87,7.87,3.52,7.87,7.87Z"/></g></g></svg>