<svg id="Capa_1" data-name="Capa 1" xmlns="http://www.w3.org/2000/svg" viewBox="0 0 23.73 37.76"><defs><style>.cls-1{fill:#94aec9;}</style></defs><path class="cls-1" d="M31.54,43.27a1,1,0,0,1-1-1V32.13a1,1,0,0,1,2,0V42.29A1,1,0,0,1,31.54,43.27Z" transform="translate(-13.28 -5.52)"/><path class="cls-1" d="M25.14,20.7A5.74,5.74,0,1,1,30.88,15,5.75,5.75,0,0,1,25.14,20.7Zm0-9.52A3.78,3.78,0,1,0,28.92,15,3.78,3.78,0,0,0,25.14,11.18Z" transform="translate(-13.28 -5.52)"/><path class="cls-1" d="M33.24,13.55a1,1,0,0,1-.94-.71,7.5,7.5,0,0,0-7.15-5.35A7.42,7.42,0,0,0,18,12.74a1,1,0,0,1-1.88-.58,9.42,9.42,0,0,1,18,.12,1,1,0,0,1-.67,1.22.9.9,0,0,1-.28,0Z" transform="translate(-13.28 -5.52)"/><path class="cls-1" d="M18.74,43.27a1,1,0,0,1-1-1V32.13a1,1,0,0,1,2,0V42.29A1,1,0,0,1,18.74,43.27Z" transform="translate(-13.28 -5.52)"/><path class="cls-1" d="M18.74,43.27a1,1,0,0,1-1-1V35.91a1,1,0,0,1,2,0v6.38A1,1,0,0,1,18.74,43.27Z" transform="translate(-13.28 -5.52)"/><path class="cls-1" d="M14.26,43.27a1,1,0,0,1-1-1V30A7.56,7.56,0,0,1,20,22.43a1,1,0,0,1,.23,1.95,5.59,5.59,0,0,0-5,5.56V42.28a1,1,0,0,1-1,1Z" transform="translate(-13.28 -5.52)"/><path class="cls-1" d="M36,43.27a1,1,0,0,1-1-1V30a5.59,5.59,0,0,0-5-5.56,1,1,0,1,1,.23-1.95A7.56,7.56,0,0,1,37,30V42.3a1,1,0,0,1-1,1Z" transform="translate(-13.28 -5.52)"/><path class="cls-1" d="M15.6,13.13v3.75a1.61,1.61,0,1,0,3.22,0V13.13a1.61,1.61,0,1,0-3.22,0Z" transform="translate(-13.28 -5.52)"/><path class="cls-1" d="M31.63,13.13v3.75a1.61,1.61,0,1,0,3.22,0V13.13a1.61,1.61,0,1,0-3.22,0Z" transform="translate(-13.28 -5.52)"/></svg>