<svg id="Capa_1" data-name="Capa 1" xmlns="http://www.w3.org/2000/svg" viewBox="0 0 44.61 23.78"><defs><style>.cls-1{fill:#94aec9;}</style></defs><path class="cls-1" d="M9.51,29.51a.55.55,0,0,1-.18,0L3.76,28a.68.68,0,0,1-.42-.32.7.7,0,0,1-.07-.53L6.75,14.38a.7.7,0,0,1,.84-.49l5.55,1.49a.69.69,0,0,1,.49.84L10.16,29a.68.68,0,0,1-.67.51ZM4.79,26.86,9,28l3.11-11.44L7.91,15.41Z" transform="translate(-3.25 -13.46)"/><path class="cls-1" d="M12,28.76a4.54,4.54,0,0,1-1.36-.21l-1-.32a.69.69,0,0,1-.46-.84l2.74-10.1a.68.68,0,0,1,.32-.42.66.66,0,0,1,.53-.06l1.5.42a4.5,4.5,0,0,0,2.52,0l3.61-1.1a4.59,4.59,0,0,1,4.44,1l4.71,4.33a2.25,2.25,0,0,1,.52,2.6,2.28,2.28,0,0,1-1.41,1.22A2.25,2.25,0,0,1,26.82,25l-2.74-1.75a2.2,2.2,0,0,0-2.4,0L14.49,28a4.54,4.54,0,0,1-2.48.75Zm-1.32-1.65.38.12a3.13,3.13,0,0,0,2.66-.37l7.19-4.77a3.58,3.58,0,0,1,3.91,0l2.74,1.75a.87.87,0,0,0,1.05-1.37l-4.71-4.33a3.22,3.22,0,0,0-3.1-.7l-3.61,1.1a5.88,5.88,0,0,1-3.3,0l-.83-.23-2.39,8.79Z" transform="translate(-3.25 -13.46)"/><path class="cls-1" d="M37.69,29.47a.69.69,0,0,1-.3-1.32l2.77-1.29-3.32-8.23-2,.3a5.35,5.35,0,0,1-2.6-.26l-5.33-1.94a1.74,1.74,0,0,0-1.25,0l-2,.82a.69.69,0,0,1-.52-1.28l2-.82a3.14,3.14,0,0,1,2.24,0l5.33,1.94a4.09,4.09,0,0,0,1.93.2l2.56-.38a.69.69,0,0,1,.74.42L41.68,27a.68.68,0,0,1-.35.88L38,29.4a.73.73,0,0,1-.29.07Z" transform="translate(-3.25 -13.46)"/><path class="cls-1" d="M36.81,32.43a1.91,1.91,0,0,1-1.55-.8L34,29.87a1.9,1.9,0,0,1,.45-2.64l.44-.31a1.9,1.9,0,0,1,2.64.45l1.25,1.76a1.9,1.9,0,0,1-.45,2.64l-.44.31A1.84,1.84,0,0,1,36.81,32.43ZM36,28a.55.55,0,0,0-.3.09l-.44.31a.5.5,0,0,0-.12.71l1.25,1.76a.5.5,0,0,0,.71.12l.44-.31a.5.5,0,0,0,.12-.71l-1.25-1.76a.52.52,0,0,0-.42-.22Z" transform="translate(-3.25 -13.46)"/><path class="cls-1" d="M34.79,34.85a1.23,1.23,0,0,1-.33,0A2,2,0,0,1,33.2,34l-3.14-4.44a1.92,1.92,0,0,1-.33-1.45,2,2,0,0,1,.79-1.26l.46-.32a1.92,1.92,0,0,1,1.45-.33,2,2,0,0,1,1.26.79l3.14,4.44a1.92,1.92,0,0,1,.33,1.45,2,2,0,0,1-.79,1.26l-.46.32A1.89,1.89,0,0,1,34.79,34.85ZM32.1,27.59a.55.55,0,0,0-.32.1l-.46.33a.61.61,0,0,0-.23.36.53.53,0,0,0,.1.42l3.14,4.44a.58.58,0,0,0,.36.23.52.52,0,0,0,.42-.09l.46-.33a.61.61,0,0,0,.23-.36.52.52,0,0,0-.09-.42l-3.14-4.44a.57.57,0,0,0-.46-.24Z" transform="translate(-3.25 -13.46)"/><path class="cls-1" d="M31.62,35.67a1.23,1.23,0,0,1-.33,0A2,2,0,0,1,30,34.85l-2.33-3.3a1.92,1.92,0,0,1-.33-1.45,2,2,0,0,1,.79-1.26l.46-.33a1.92,1.92,0,0,1,1.45-.33,2,2,0,0,1,1.26.79l2.33,3.3A2,2,0,0,1,33.2,35l-.46.33A2,2,0,0,1,31.62,35.67Zm-1.88-6.12a.6.6,0,0,0-.32.1L29,30a.58.58,0,0,0-.23.36.53.53,0,0,0,.1.42l2.33,3.3a.61.61,0,0,0,.36.23.49.49,0,0,0,.42-.1l.46-.33a.58.58,0,0,0,.23-.36.52.52,0,0,0-.09-.42l-2.33-3.3a.61.61,0,0,0-.36-.23h-.11Z" transform="translate(-3.25 -13.46)"/><path class="cls-1" d="M28.85,37.24a2,2,0,0,1-1.63-.84L25.3,33.69a2,2,0,0,1,.47-2.78l.48-.34a2,2,0,0,1,1.49-.34A2,2,0,0,1,29,31L31,33.75a2,2,0,0,1,.34,1.49,2,2,0,0,1-.81,1.29l-.48.34A2,2,0,0,1,28.85,37.24Zm-1.44-5.65a.61.61,0,0,0-.35.11l-.48.34a.62.62,0,0,0-.15.85l1.92,2.71a.61.61,0,0,0,.4.25.59.59,0,0,0,.46-.1l.48-.34a.63.63,0,0,0,.25-.4.59.59,0,0,0-.1-.46l-1.92-2.71a.61.61,0,0,0-.4-.25h-.11Z" transform="translate(-3.25 -13.46)"/><path class="cls-1" d="M22.39,36.31A1.74,1.74,0,0,1,21,35.57a1.76,1.76,0,0,1-.27-1.41A1.72,1.72,0,0,1,21.56,33l1.94-1a.69.69,0,1,1,.65,1.21l-1.94,1a.36.36,0,0,0-.12.53.36.36,0,0,0,.45.12L26,33.3a.69.69,0,1,1,.57,1.25l-3.49,1.59a1.68,1.68,0,0,1-.72.16Z" transform="translate(-3.25 -13.46)"/><path class="cls-1" d="M19.61,35.27a2,2,0,0,1-2-2.49,2,2,0,0,1,1-1.32l5.64-3.27a.69.69,0,1,1,.69,1.19l-5.64,3.27a.7.7,0,0,0-.32.43.66.66,0,0,0,.94.74l1.92-.94a.69.69,0,1,1,.6,1.24l-1.92.93a2,2,0,0,1-.89.2Z" transform="translate(-3.25 -13.46)"/><path class="cls-1" d="M17.62,33.3a2.24,2.24,0,0,1-.57-.08,2.1,2.1,0,0,1-1.3-1,2.14,2.14,0,0,1,.75-2.85L22,26a.69.69,0,0,1,.72,1.18l-5.53,3.39a.76.76,0,0,0-.27,1,.72.72,0,0,0,.46.36.74.74,0,0,0,.58-.08l4.42-2.58a.69.69,0,0,1,.69,1.19L18.68,33a2.15,2.15,0,0,1-1.07.29Z" transform="translate(-3.25 -13.46)"/><path class="cls-1" d="M15.4,31.24A2.47,2.47,0,0,1,13.24,30,2.49,2.49,0,0,1,14,26.66l3.89-2.58a.69.69,0,0,1,.77,1.15l-3.89,2.58a1.12,1.12,0,0,0-.35,1.49,1.09,1.09,0,0,0,.7.52,1.13,1.13,0,0,0,.86-.14l2.17-1.37a.69.69,0,0,1,.74,1.17l-2.17,1.37a2.43,2.43,0,0,1-1.33.39Z" transform="translate(-3.25 -13.46)"/><path class="cls-1" d="M41.67,29.34a.68.68,0,0,1-.63-.42l-.62-1.44-3.77-9.36-.56-1.5a.7.7,0,0,1,.39-.89l5.67-2.22a.7.7,0,0,1,.9.39l4.76,12.37a.7.7,0,0,1,0,.53.64.64,0,0,1-.38.36l-5.5,2.11a.7.7,0,0,1-.25.05ZM37.93,17.62,42,27.77l4.23-1.63L42,15.06l-4.39,1.72Z" transform="translate(-3.25 -13.46)"/></svg>