<svg id="Capa_1" data-name="Capa 1" xmlns="http://www.w3.org/2000/svg" viewBox="0 0 36.34 36.48"><defs><style>.cls-1{fill:#f2c670;}</style></defs><path class="cls-1" d="M16.23,12.91A3.41,3.41,0,1,1,19.64,9.5,3.41,3.41,0,0,1,16.23,12.91Zm0-5.7A2.29,2.29,0,1,0,18.52,9.5,2.3,2.3,0,0,0,16.23,7.21Z" transform="translate(-9.15 -6.09)"/><path class="cls-1" d="M12.39,26.43a.56.56,0,0,1-.56-.56V18.05a.56.56,0,0,1,1.12,0v7.82A.56.56,0,0,1,12.39,26.43Z" transform="translate(-9.15 -6.09)"/><path class="cls-1" d="M20.06,42.57H17.18a.56.56,0,0,1-.56-.56V30.18a.41.41,0,0,0-.14-.3.42.42,0,0,0-.32-.09.43.43,0,0,0-.32.43V42a.56.56,0,0,1-.56.56H12.4a.56.56,0,0,1-.56-.56V27.6a1.94,1.94,0,0,1-1.26.11,1.92,1.92,0,0,1-1.42-1.89V16.76A2.88,2.88,0,0,1,12,13.89h1.08a.56.56,0,0,1,0,1.12H12a1.74,1.74,0,0,0-1.74,1.74v9.06a.78.78,0,0,0,1.26.66.78.78,0,0,0,.3-.62.56.56,0,1,1,1.12,0V41.43h1.76V30.22A1.54,1.54,0,0,1,16,28.68a1.51,1.51,0,0,1,1.76,1.49V41.44h1.76V18a.57.57,0,0,1,.34-.52.55.55,0,0,1,.61.11l4.34,4.11a1,1,0,0,0,.7.28h4.18a.79.79,0,0,0,0-1.58l-3.31,0a2.1,2.1,0,0,1-1.61-.76l-3.5-4.12A1.73,1.73,0,0,0,20,15H18.62a.56.56,0,0,1,0-1.12H20a2.88,2.88,0,0,1,2.07.88l3.53,4.15a1,1,0,0,0,.77.36l3.31,0a1.91,1.91,0,0,1,0,3.82H25.51A2.15,2.15,0,0,1,24,22.55l-3.39-3.21V42a.56.56,0,0,1-.56.56Z" transform="translate(-9.15 -6.09)"/><path class="cls-1" d="M29.08,42.57H9.71a.56.56,0,1,1,0-1.12H29.08a.56.56,0,0,1,0,1.12Z" transform="translate(-9.15 -6.09)"/><path class="cls-1" d="M44.83,25.8H28.29a.67.67,0,0,1,0-1.34H44.16V9.54H28.38v7.89a.67.67,0,0,1-1.34,0V8.88a.67.67,0,0,1,.67-.67H44.82a.67.67,0,0,1,.67.67V25.13a.67.67,0,0,1-.67.67Z" transform="translate(-9.15 -6.09)"/><path class="cls-1" d="M30.86,21.24a.39.39,0,0,1-.27-.11.38.38,0,0,1,0-.54L37.15,14a.38.38,0,1,1,.54.54l-6.56,6.56A.39.39,0,0,1,30.86,21.24Z" transform="translate(-9.15 -6.09)"/></svg>