<svg id="Capa_1" data-name="Capa 1" xmlns="http://www.w3.org/2000/svg" viewBox="0 0 31.39 43.31"><defs><style>.cls-1{fill:#f2c670;}</style></defs><path class="cls-1" d="M9.9,22.92V6.54c0-1.42.48-1.9,1.92-1.9H38.2c1.42,0,1.87.45,1.87,1.86V23.88c0,.25,0,.4-.35.41s-.42-.14-.4-.43V6.63c0-1.07-.11-1.19-1.17-1.19H11.84c-1.09,0-1.16.07-1.16,1.18V39.38c0,1.09.07,1.16,1.17,1.16H24.26c.26,0,.28.2.28.4s0,.38-.3.38H11.75c-1.4,0-1.88-.47-1.88-1.87V22.93Z" transform="translate(-9.87 -4.64)"/><path class="cls-1" d="M41.26,45.78c-.9-.26-1.72-.47-2.51-.75a.71.71,0,0,0-1,.4c-.46.82-1,1.6-1.56,2.52-.49-1.05-.92-2-1.36-3-.55-1.2-1.1-2.4-1.64-3.61a.65.65,0,0,0-.66-.49c-.41,0-.45.27-.56.51q-1.32,2.87-2.62,5.73L29,48c-.59-.94-1.14-1.78-1.65-2.65a.57.57,0,0,0-.8-.3c-.84.27-1.7.5-2.56.75-.1-.34.08-.53.17-.73q1.35-3.12,2.73-6.22a4,4,0,0,0,.1-2c0-.25-.23-.39-.48-.47s-.81-.27-1.19-.44a1.26,1.26,0,0,1-.64-2,2,2,0,0,0,0-3,1.22,1.22,0,0,1,.66-2,2,2,0,0,0,1.73-2.45,1.21,1.21,0,0,1,1.61-1.19,2,2,0,0,0,2.93-.91,1.26,1.26,0,0,1,2.11.06,2,2,0,0,0,2.75.89,1.24,1.24,0,0,1,1.74,1.32,1.87,1.87,0,0,0,1.68,2.27A1.31,1.31,0,0,1,40.56,31l-.08.12a1.67,1.67,0,0,0,0,2.57c.76.93.41,1.86-.71,2.29-1.53.58-1.78,1-1.52,2.62a2.63,2.63,0,0,0,.22.59l2.77,6.36a1.33,1.33,0,0,1,0,.26Zm-4.5-7c.65,0,.76-.47.71-.9a2.14,2.14,0,0,1,2-2.65.66.66,0,0,0,.2-.06c.44-.22.63-.59.28-1a2.37,2.37,0,0,1,0-3.66c.38-.41.17-.8-.32-1s-.8-.27-1.2-.44a1.27,1.27,0,0,1-.87-1.25c0-.28,0-.57,0-.85-.06-1.05-.25-1.19-1.28-.9-1.7.48-1.74.47-2.83-1l-.18-.22c-.43-.47-.82-.51-1.14,0A2.3,2.3,0,0,1,28.74,26c-.61-.28-1,0-.94.7a2.26,2.26,0,0,1-2.08,2.79.37.37,0,0,0-.14,0,.59.59,0,0,0-.31.88,4.63,4.63,0,0,0,.39.59c.83,1.21.83,1.43,0,2.65l-.24.35c-.4.63-.32.91.36,1.18l1.06.4a1.34,1.34,0,0,1,.91,1.3c0,.31,0,.61,0,.92,0,.87.27,1,1.11.82l.48-.14c1.26-.36,1.49-.28,2.29.75.92,1.19,1,1.2,1.94,0l.31-.39a1.35,1.35,0,0,1,1.63-.49c.42.15.86.24,1.24.34ZM25.14,44.61c.57-.17,1-.25,1.36-.41a.88.88,0,0,1,1.34.5,16.91,16.91,0,0,0,1,1.64c.84-1.85,1.59-3.6,2.45-5.3.38-.75-.17-1-.46-1.51s-.66-.43-1.11-.3c-.66.19-1.32.56-2,.17-.28-.15-.31.12-.38.27l-2.17,4.95Zm14.85,0-2.17-4.94c0-.12-.1-.33-.27-.25-.84.39-1.56-.11-2.33-.25-.56-.1-1.7,1.11-1.48,1.62.81,1.83,1.66,3.64,2.53,5.56.42-.67.8-1.23,1.13-1.82.23-.4.45-.6,1-.38a14,14,0,0,0,1.63.46Z" transform="translate(-9.87 -4.64)"/><path class="cls-1" d="M12.22,23V10.9c0-.55,0-.82.73-.82a2.78,2.78,0,0,0,2.69-2.61c.06-.45.23-.52.62-.52h18c.4,0,.56.08.62.52a2.76,2.76,0,0,0,2.48,2.6c.38.08.44.23.44.56V22.4c0,.3,0,.69-.41.67s-.37-.42-.37-.72c0-3.5,0-7,0-10.5,0-.67-.09-1.09-.83-1.36a3.07,3.07,0,0,1-1.94-2.28c-.1-.4-.28-.51-.68-.51H16.91a.54.54,0,0,0-.63.47,3.48,3.48,0,0,1-2.91,2.65c-.31.06-.4.18-.38.46v.35q0,11.31,0,22.62c0,.54.09.81.69.94a3.33,3.33,0,0,1,2.58,2.47.65.65,0,0,0,.78.57c2.08,0,4.16,0,6.24,0a2.6,2.6,0,0,1,.56,0,.39.39,0,0,1,.34.4.36.36,0,0,1-.31.34,2,2,0,0,1-.49,0H16.28c-.38,0-.56,0-.62-.51a2.83,2.83,0,0,0-3-2.69c-.59,0-.42-.4-.42-.68V23Z" transform="translate(-9.87 -4.64)"/><path class="cls-1" d="M25,16.23h9.29c.24,0,.43.09.45.35s-.21.39-.47.41H15.82c-.25,0-.51-.06-.52-.36s.25-.41.53-.41H25Z" transform="translate(-9.87 -4.64)"/><path class="cls-1" d="M21.07,19.91h5.09c.32,0,.77-.09.79.36s-.43.41-.75.41H16.09a3,3,0,0,1-.42,0c-.2,0-.37-.12-.38-.35a.38.38,0,0,1,.4-.4c.31,0,.61,0,.92,0h4.46Z" transform="translate(-9.87 -4.64)"/><path class="cls-1" d="M19.26,27.29h3.18c.31,0,.68,0,.68.4s-.36.37-.64.37H16c-.3,0-.7.05-.68-.4s.41-.37.71-.37h3.26Z" transform="translate(-9.87 -4.64)"/><path class="cls-1" d="M26.66,13.31H23.47c-.3,0-.7,0-.68-.42s.38-.35.66-.35H29.9c.3,0,.62,0,.6.41s-.32.36-.59.36H26.66Z" transform="translate(-9.87 -4.64)"/><path class="cls-1" d="M19.2,24.37H15.88c-.26,0-.58,0-.58-.34s.3-.41.61-.41h6.57c.28,0,.64,0,.65.36s-.38.4-.68.4H19.2Z" transform="translate(-9.87 -4.64)"/><path class="cls-1" d="M32.73,27.52a4.86,4.86,0,1,1-5,4.68,4.84,4.84,0,0,1,5-4.67Zm-4.2,4.84a4.09,4.09,0,1,0,4.11-4.08,4.11,4.11,0,0,0-4.11,4.08Z" transform="translate(-9.87 -4.64)"/></svg>