<svg id="Capa_1" data-name="Capa 1" xmlns="http://www.w3.org/2000/svg" viewBox="0 0 50 50"><defs><style>.cls-1{fill:#fff;}.cls-2{fill:#ffce05;}.cls-2,.cls-3{opacity:0.92;}.cls-3,.cls-4{fill:#303439;}</style></defs><circle class="cls-1" cx="25" cy="22.29" r="15.5"/><path class="cls-2" d="M38.4,41.62H18.27a4,4,0,0,1-4-4h0a4,4,0,0,1,4-4H38.4a4,4,0,0,1,4,4h0A4,4,0,0,1,38.4,41.62Z"/><circle class="cls-3" cx="13.18" cy="37.66" r="5.54"/><path class="cls-4" d="M20.18,17.33a1.49,1.49,0,1,1,1.48-1.48A1.49,1.49,0,0,1,20.18,17.33Zm0-2.48a1,1,0,1,0,1,1A1,1,0,0,0,20.18,14.85Z"/><path class="cls-4" d="M18.51,23.21a.25.25,0,0,1-.25-.25v-3.4a.25.25,0,0,1,.49,0V23A.25.25,0,0,1,18.51,23.21Z"/><path class="cls-4" d="M21.84,30.22H20.59a.25.25,0,0,1-.25-.24V24.84a.19.19,0,0,0-.05-.13.18.18,0,0,0-.14,0,.19.19,0,0,0-.14.19V30a.25.25,0,0,1-.25.24H18.51a.25.25,0,0,1-.25-.24V23.72a.83.83,0,0,1-1.16-.78V19a1.25,1.25,0,0,1,1.25-1.24h.46a.25.25,0,1,1,0,.49h-.46a.76.76,0,0,0-.76.75v3.94a.35.35,0,0,0,.25.35.31.31,0,0,0,.29-.06.32.32,0,0,0,.13-.27.25.25,0,0,1,.49,0v6.77h.77V24.86a.67.67,0,0,1,.55-.67.64.64,0,0,1,.53.15.63.63,0,0,1,.23.5v4.89h.77V19.56a.24.24,0,0,1,.15-.22.25.25,0,0,1,.26,0l1.89,1.79a.42.42,0,0,0,.3.12H26a.34.34,0,0,0,0-.68l-1.44,0a.92.92,0,0,1-.7-.33l-1.52-1.79a.74.74,0,0,0-.54-.22h-.61a.25.25,0,1,1,0-.49h.61a1.26,1.26,0,0,1,.9.38L24.26,20a.45.45,0,0,0,.33.15l1.44,0a.84.84,0,0,1,.82.83.83.83,0,0,1-.83.83H24.2a.93.93,0,0,1-.64-.25l-1.47-1.4V30A.25.25,0,0,1,21.84,30.22Z"/><path class="cls-4" d="M25.77,30.22H17.34a.25.25,0,0,1,0-.49h8.43a.25.25,0,0,1,0,.49Z"/><path class="cls-4" d="M32.61,22.93H25.42a.29.29,0,1,1,0-.58h6.9V15.86H25.46v3.43a.29.29,0,0,1-.58,0V15.58a.29.29,0,0,1,.29-.29h7.44a.29.29,0,0,1,.29.29v7.06A.29.29,0,0,1,32.61,22.93Z"/><path class="cls-4" d="M26.54,21a.17.17,0,0,1-.12-.05.18.18,0,0,1,0-.24l2.85-2.85a.17.17,0,0,1,.24.24L26.66,20.9A.21.21,0,0,1,26.54,21Z"/></svg>