<svg id="Capa_1" data-name="Capa 1" xmlns="http://www.w3.org/2000/svg" xmlns:xlink="http://www.w3.org/1999/xlink" viewBox="0 0 50 50"><defs><style>.cls-1{fill:none;}.cls-2{opacity:0.58;}.cls-3{clip-path:url(#clip-path);}.cls-4{fill:#fff;}.cls-5{fill:#ffce05;}.cls-5,.cls-6{opacity:0.92;}.cls-6,.cls-7{fill:#303439;}</style><clipPath id="clip-path"><rect class="cls-1" x="47.84" y="-636.57" width="599.14" height="428.14"/></clipPath></defs><circle class="cls-4" cx="25" cy="22.29" r="15.5"/><path class="cls-5" d="M38.4,41.62H18.27a4,4,0,0,1-4-4h0a4,4,0,0,1,4-4H38.4a4,4,0,0,1,4,4h0A4,4,0,0,1,38.4,41.62Z"/><circle class="cls-6" cx="13.18" cy="37.66" r="5.54"/><path class="cls-7" d="M19.12,21V14.88c0-.53.18-.71.72-.71h9.89c.54,0,.71.17.71.7v6.35a.86.86,0,0,0,0,.16c0,.09,0,.15-.13.15s-.16-.05-.15-.16V14.91c0-.4-.05-.45-.44-.45H19.85c-.41,0-.43,0-.43.45V27.19c0,.41,0,.44.44.44h4.65c.1,0,.11.07.11.15s0,.14-.11.14H19.83c-.53,0-.71-.17-.71-.7Z"/><path class="cls-7" d="M30.88,29.6c-.34-.1-.65-.18-.94-.28a.26.26,0,0,0-.38.15c-.17.31-.37.6-.59.94-.18-.39-.34-.75-.51-1.1L27.85,28a.25.25,0,0,0-.25-.19c-.15,0-.17.1-.21.19l-1,2.15-.14.3c-.23-.35-.43-.66-.62-1a.21.21,0,0,0-.3-.11l-1,.28c0-.13,0-.2.06-.27.34-.78.68-1.56,1-2.34a1.59,1.59,0,0,0,0-.75c0-.1-.09-.15-.18-.18a3.47,3.47,0,0,1-.45-.17.47.47,0,0,1-.24-.74.75.75,0,0,0,0-1.13.46.46,0,0,1,.25-.74.74.74,0,0,0,.65-.92.46.46,0,0,1,.61-.45.77.77,0,0,0,1.1-.34.47.47,0,0,1,.79,0,.72.72,0,0,0,1,.33.46.46,0,0,1,.65.5c-.05.5.16.73.63.85a.49.49,0,0,1,.26.79l0,0a.63.63,0,0,0,0,1,.5.5,0,0,1-.27.85c-.57.22-.66.38-.57,1a.73.73,0,0,0,.09.23c.34.79.69,1.59,1,2.38A.51.51,0,0,0,30.88,29.6ZM29.19,27c.25,0,.29-.18.27-.34a.79.79,0,0,1,.73-1s.06,0,.08,0c.17-.08.24-.22.1-.36a.89.89,0,0,1,0-1.37c.14-.15.07-.3-.12-.38l-.45-.16a.49.49,0,0,1-.33-.47c0-.1,0-.21,0-.32,0-.39-.09-.44-.48-.33-.64.18-.65.17-1.06-.37l-.06-.08c-.16-.18-.31-.19-.43,0a.87.87,0,0,1-1.25.41c-.23-.1-.38,0-.35.26a.85.85,0,0,1-.78,1.05H25a.23.23,0,0,0-.12.33l.15.23c.31.45.31.53,0,1l-.09.13c-.15.24-.12.34.14.44l.39.15a.5.5,0,0,1,.34.49c0,.12,0,.23,0,.35,0,.32.1.39.41.31l.18-.06c.48-.13.56-.1.86.29s.39.44.73,0l.11-.15a.51.51,0,0,1,.62-.18Zm-4.36,2.18a5,5,0,0,0,.52-.15.33.33,0,0,1,.5.18,5,5,0,0,0,.38.62c.32-.7.6-1.35.92-2,.14-.28-.07-.4-.18-.57s-.24-.16-.41-.11-.5.21-.77.06c-.1-.05-.12.05-.14.1C25.38,27.9,25.12,28.5,24.83,29.16Zm5.57,0c-.28-.65-.55-1.25-.81-1.85,0,0,0-.12-.1-.09-.32.15-.59,0-.88-.09s-.63.41-.55.6c.3.69.62,1.37,1,2.09.16-.26.3-.47.43-.69s.16-.22.35-.14A3.77,3.77,0,0,0,30.4,29.15Z"/><path class="cls-7" d="M20,21V16.52c0-.21,0-.31.27-.31a1,1,0,0,0,1-1c0-.17.09-.2.23-.2h6.76c.15,0,.21,0,.23.2a1,1,0,0,0,.93,1c.14,0,.16.08.16.21v4.41c0,.11,0,.26-.15.25s-.14-.16-.14-.27c0-1.31,0-2.62,0-3.93,0-.26,0-.41-.31-.51a1.18,1.18,0,0,1-.73-.86.21.21,0,0,0-.25-.19H21.75a.21.21,0,0,0-.24.18,1.3,1.3,0,0,1-1.09,1c-.12,0-.15.07-.14.17v.14q0,4.23,0,8.48c0,.2,0,.3.26.35a1.25,1.25,0,0,1,1,.93c.05.17.12.21.29.21h2.34a.74.74,0,0,1,.21,0,.14.14,0,0,1,.13.15.16.16,0,0,1-.12.13H21.51c-.15,0-.21,0-.24-.19a1.06,1.06,0,0,0-1.12-1c-.22,0-.16-.15-.16-.26Z"/><path class="cls-7" d="M24.77,18.52h3.48c.09,0,.17,0,.17.13s-.08.15-.17.15H21.34c-.1,0-.19,0-.2-.14s.1-.15.2-.15h3.43Z"/><path class="cls-7" d="M23.31,19.9h1.91c.12,0,.28,0,.29.14s-.16.15-.28.15H21.28c-.07,0-.14,0-.14-.13s.06-.14.15-.15h2Z"/><path class="cls-7" d="M22.63,22.67h1.2c.11,0,.25,0,.25.15S24,23,23.84,23c-.81,0-1.63,0-2.44,0-.11,0-.26,0-.26-.15s.16-.13.27-.13C21.82,22.66,22.23,22.67,22.63,22.67Z"/><path class="cls-7" d="M25.41,17.42h-1.2c-.11,0-.26,0-.25-.15s.14-.14.24-.14h2.42c.12,0,.24,0,.23.16s-.12.13-.22.13Z"/><path class="cls-7" d="M22.61,21.57H21.36c-.1,0-.22,0-.22-.13s.12-.16.23-.16h2.47c.1,0,.24,0,.24.13s-.14.15-.26.15Z"/><path class="cls-7" d="M27.68,22.75a1.82,1.82,0,1,1-.11,3.64,1.82,1.82,0,0,1,.11-3.64Zm-1.57,1.82A1.53,1.53,0,1,0,27.65,23,1.55,1.55,0,0,0,26.11,24.57Z"/></svg>