<svg id="Capa_1" data-name="Capa 1" xmlns="http://www.w3.org/2000/svg" viewBox="0 0 50 50"><defs><style>.cls-1{fill:#fff;}.cls-2{fill:#ffce05;}.cls-2,.cls-3{opacity:0.92;}.cls-3,.cls-4{fill:#303439;}</style></defs><circle class="cls-1" cx="25" cy="22.29" r="15.5"/><path class="cls-2" d="M38.4,41.62H18.27a4,4,0,0,1-4-4h0a4,4,0,0,1,4-4H38.4a4,4,0,0,1,4,4h0A4,4,0,0,1,38.4,41.62Z"/><circle class="cls-3" cx="13.18" cy="37.66" r="5.54"/><path class="cls-4" d="M27.48,28.91a.38.38,0,0,1-.38-.38V24.59a.38.38,0,0,1,.76,0v3.94A.38.38,0,0,1,27.48,28.91Z"/><path class="cls-4" d="M25,20.15a2.23,2.23,0,1,1,2.23-2.22A2.23,2.23,0,0,1,25,20.15Zm0-3.69a1.47,1.47,0,1,0,1.46,1.47A1.46,1.46,0,0,0,25,16.46Z"/><path class="cls-4" d="M28.14,17.38a.36.36,0,0,1-.36-.27A2.93,2.93,0,0,0,25,15a2.87,2.87,0,0,0-2.76,2,.38.38,0,0,1-.48.25.38.38,0,0,1-.25-.47A3.64,3.64,0,0,1,25,14.27a3.69,3.69,0,0,1,3.51,2.62.39.39,0,0,1-.26.48Z"/><path class="cls-4" d="M22.52,28.91a.38.38,0,0,1-.38-.38V24.59a.38.38,0,0,1,.76,0v3.94A.38.38,0,0,1,22.52,28.91Z"/><path class="cls-4" d="M22.52,28.91a.38.38,0,0,1-.38-.38V26.06a.38.38,0,1,1,.76,0v2.47A.38.38,0,0,1,22.52,28.91Z"/><path class="cls-4" d="M20.78,28.91a.38.38,0,0,1-.38-.38V23.74A2.93,2.93,0,0,1,23,20.83a.38.38,0,0,1,.09.75,2.18,2.18,0,0,0-1.93,2.16v4.79A.38.38,0,0,1,20.78,28.91Z"/><path class="cls-4" d="M29.22,28.91a.38.38,0,0,1-.38-.38V23.74a2.18,2.18,0,0,0-1.93-2.16.38.38,0,0,1,.09-.75,2.93,2.93,0,0,1,2.6,2.91v4.79A.38.38,0,0,1,29.22,28.91Z"/><path class="cls-4" d="M21.3,17.22v1.45a.63.63,0,1,0,1.25,0V17.22a.63.63,0,1,0-1.25,0Z"/><path class="cls-4" d="M27.52,17.22v1.45a.63.63,0,1,0,1.25,0V17.22a.63.63,0,1,0-1.25,0Z"/></svg>