<svg id="Capa_1" data-name="Capa 1" xmlns="http://www.w3.org/2000/svg" viewBox="0 0 50 50"><defs><style>.cls-1{fill:#fff;}.cls-2{fill:#ffce05;}.cls-2,.cls-3,.cls-4{opacity:0.92;}.cls-3,.cls-5{fill:#303439;}</style></defs><circle class="cls-1" cx="25" cy="22.29" r="15.5"/><path class="cls-2" d="M38.4,41.62H18.27a4,4,0,0,1-4-4h0a4,4,0,0,1,4-4H38.4a4,4,0,0,1,4,4h0A4,4,0,0,1,38.4,41.62Z"/><circle class="cls-3" cx="13.18" cy="37.66" r="5.54"/><g class="cls-4"><path class="cls-5" d="M18.1,24.08H18l-2.4-.64a.31.31,0,0,1-.18-.14.28.28,0,0,1,0-.22l1.5-5.5a.3.3,0,0,1,.37-.21l2.38.64a.3.3,0,0,1,.19.14.28.28,0,0,1,0,.22l-1.49,5.5A.29.29,0,0,1,18.1,24.08Zm-2-1.14,1.82.48,1.33-4.92L17.41,18Z"/><path class="cls-5" d="M19.17,23.75a2,2,0,0,1-.58-.09l-.44-.13a.3.3,0,0,1-.19-.37l1.18-4.34a.3.3,0,0,1,.36-.21l.65.18a2,2,0,0,0,1.08,0l1.56-.48a2,2,0,0,1,1.91.43l2,1.87A.94.94,0,0,1,27,21.71a1,1,0,0,1-.61.53,1,1,0,0,1-.79-.12l-1.18-.75a1,1,0,0,0-1,0l-3.09,2.05A1.94,1.94,0,0,1,19.17,23.75Zm-.57-.7.17.05a1.35,1.35,0,0,0,1.14-.16L23,20.88a1.53,1.53,0,0,1,1.68,0l1.18.75a.36.36,0,0,0,.3.05.39.39,0,0,0,.24-.21.37.37,0,0,0-.09-.43l-2-1.86a1.39,1.39,0,0,0-1.34-.3l-1.55.47a2.45,2.45,0,0,1-1.42,0l-.36-.1Z"/><path class="cls-5" d="M30.22,24.06a.29.29,0,0,1-.12-.56l1.19-.56L29.86,19.4l-.87.12a2.26,2.26,0,0,1-1.12-.11l-2.29-.83a.77.77,0,0,0-.54,0l-.88.36a.3.3,0,0,1-.38-.17.31.31,0,0,1,.16-.39l.88-.35a1.33,1.33,0,0,1,1,0l2.29.83a1.72,1.72,0,0,0,.84.09l1.1-.17a.29.29,0,0,1,.31.19l1.62,4a.29.29,0,0,1-.15.38L30.35,24A.28.28,0,0,1,30.22,24.06Z"/><path class="cls-5" d="M29.84,25.34a.79.79,0,0,1-.66-.35l-.54-.76a.81.81,0,0,1,.19-1.13L29,23a.83.83,0,0,1,1.14.2l.54.76a.82.82,0,0,1-.2,1.13l-.19.14A.82.82,0,0,1,29.84,25.34Zm-.35-1.93a.17.17,0,0,0-.12,0l-.19.13a.22.22,0,0,0-.06.31l.54.76a.22.22,0,0,0,.31.05l.19-.13a.22.22,0,0,0,.05-.31l-.54-.76A.21.21,0,0,0,29.49,23.41Z"/><path class="cls-5" d="M29,26.38l-.14,0a.81.81,0,0,1-.54-.34l-1.35-1.91a.8.8,0,0,1-.14-.62.77.77,0,0,1,.34-.54l.19-.14a.84.84,0,0,1,.63-.14.85.85,0,0,1,.54.34l1.35,1.91a.8.8,0,0,1,.14.62.85.85,0,0,1-.34.54l-.2.14A.84.84,0,0,1,29,26.38Zm-1.15-3.13a.23.23,0,0,0-.14,0l-.2.14a.27.27,0,0,0-.1.16.28.28,0,0,0,0,.18l1.35,1.91a.27.27,0,0,0,.16.1.28.28,0,0,0,.18,0l.2-.14a.34.34,0,0,0,.1-.16.24.24,0,0,0-.05-.18L28,23.35A.24.24,0,0,0,27.82,23.25Z"/><path class="cls-5" d="M27.61,26.73h-.14a.82.82,0,0,1-.54-.34l-1-1.42a.8.8,0,0,1-.14-.62.85.85,0,0,1,.34-.54l.2-.14a.8.8,0,0,1,.62-.14.77.77,0,0,1,.54.34l1,1.41a.85.85,0,0,1-.2,1.17l-.2.14A.83.83,0,0,1,27.61,26.73ZM26.8,24.1a.23.23,0,0,0-.14,0l-.2.14a.24.24,0,0,0-.09.16.24.24,0,0,0,0,.18l1,1.42a.24.24,0,0,0,.16.09.2.2,0,0,0,.18,0l.19-.14a.2.2,0,0,0,.1-.15.22.22,0,0,0,0-.18L27,24.2a.25.25,0,0,0-.16-.1Z"/><path class="cls-5" d="M26.42,27.41a.86.86,0,0,1-.7-.36l-.83-1.17a.86.86,0,0,1,.21-1.2l.2-.14a.92.92,0,0,1,.64-.15.9.9,0,0,1,.56.35l.82,1.17a.86.86,0,0,1,.15.64.88.88,0,0,1-.35.55l-.21.15A.82.82,0,0,1,26.42,27.41ZM25.8,25a.24.24,0,0,0-.15,0l-.21.15a.26.26,0,0,0-.06.37l.82,1.16a.25.25,0,0,0,.17.11.28.28,0,0,0,.2,0l.2-.15a.25.25,0,0,0,.11-.17.28.28,0,0,0,0-.2L26,25.09a.25.25,0,0,0-.17-.11Z"/><path class="cls-5" d="M23.64,27a.75.75,0,0,1-.73-.93.74.74,0,0,1,.37-.49l.84-.45a.3.3,0,0,1,.28.53l-.84.45a.18.18,0,0,0-.08.1.16.16,0,0,0,0,.12.15.15,0,0,0,.19.06l1.51-.69a.3.3,0,0,1,.39.15.29.29,0,0,1-.15.39l-1.5.69A.87.87,0,0,1,23.64,27Z"/><path class="cls-5" d="M22.44,26.56a.91.91,0,0,1-.73-.38.93.93,0,0,1-.13-.69.87.87,0,0,1,.42-.57l2.42-1.41a.3.3,0,1,1,.3.51L22.3,25.43a.3.3,0,0,0-.14.19.29.29,0,0,0,0,.22.3.3,0,0,0,.37.1l.82-.41a.3.3,0,1,1,.26.54l-.82.4A.92.92,0,0,1,22.44,26.56Z"/><path class="cls-5" d="M21.59,25.71a.69.69,0,0,1-.25,0,.88.88,0,0,1-.56-.44A.92.92,0,0,1,21.1,24l2.38-1.46a.3.3,0,0,1,.41.1.3.3,0,0,1-.1.41l-2.38,1.46a.34.34,0,0,0-.11.44.31.31,0,0,0,.2.15.32.32,0,0,0,.25,0L23.65,24a.3.3,0,0,1,.41.1.3.3,0,0,1-.11.41l-1.9,1.11A.87.87,0,0,1,21.59,25.71Z"/><path class="cls-5" d="M20.63,24.82l-.26,0a1.09,1.09,0,0,1-.67-.5A1.07,1.07,0,0,1,20,22.85l1.67-1.11a.29.29,0,0,1,.41.09.3.3,0,0,1-.08.41l-1.68,1.11a.49.49,0,0,0-.15.64.56.56,0,0,0,.31.23.49.49,0,0,0,.37-.07l.93-.58a.3.3,0,0,1,.32.5l-.94.59A1,1,0,0,1,20.63,24.82Z"/><path class="cls-5" d="M31.93,24a.29.29,0,0,1-.27-.18l-.26-.61-1.63-4-.24-.65a.3.3,0,0,1,.17-.38l2.44-.95a.3.3,0,0,1,.23,0,.3.3,0,0,1,.16.17l2,5.32a.31.31,0,0,1,0,.23.26.26,0,0,1-.16.15L32,24A.2.2,0,0,1,31.93,24Zm-1.6-5,1.76,4.37,1.83-.7-1.84-4.77-1.89.74Z"/></g></svg>