<?xml version="1.0" encoding="UTF-8"?><svg id="Capa_1" xmlns="http://www.w3.org/2000/svg" viewBox="0 0 50 50"><defs><style>.cls-1{fill:#fff;}</style></defs><path class="cls-1" d="m31.54,43.27c-.54,0-.98-.44-.98-.98v-10.16c0-.54.44-.98.98-.98s.98.44.98.98v10.16c0,.54-.44.98-.98.98Z"/><path class="cls-1" d="m25.14,20.7c-3.17,0-5.74-2.58-5.74-5.74s2.58-5.74,5.74-5.74,5.74,2.58,5.74,5.74-2.58,5.74-5.74,5.74Zm0-9.52c-2.08,0-3.78,1.69-3.78,3.78s1.69,3.78,3.78,3.78,3.78-1.69,3.78-3.78-1.69-3.78-3.78-3.78Z"/><path class="cls-1" d="m33.24,13.55c-.42,0-.82-.28-.94-.71-.93-3.15-3.87-5.35-7.15-5.35s-6.15,2.11-7.12,5.25c-.16.52-.71.81-1.23.65-.52-.16-.81-.71-.65-1.23,1.23-3.97,4.84-6.64,9-6.64s7.87,2.78,9.04,6.76c.15.52-.14,1.07-.67,1.22-.09.03-.19.04-.28.04Z"/><path class="cls-1" d="m18.74,43.27c-.54,0-.98-.44-.98-.98v-10.16c0-.54.44-.98.98-.98s.98.44.98.98v10.16c0,.54-.44.98-.98.98Z"/><path class="cls-1" d="m18.74,43.27c-.54,0-.98-.44-.98-.98v-6.38c0-.54.44-.98.98-.98s.98.44.98.98v6.38c0,.54-.44.98-.98.98Z"/><path class="cls-1" d="m14.26,43.27c-.54,0-.98-.44-.98-.98v-12.34c0-3.85,2.88-7.08,6.7-7.52.54-.06,1.03.32,1.09.86.06.54-.32,1.03-.86,1.09-2.83.32-4.96,2.72-4.96,5.56v12.34c0,.54-.44.98-.98.98Z"/><path class="cls-1" d="m36.02,43.27c-.54,0-.98-.44-.98-.98v-12.34c0-2.85-2.13-5.24-4.96-5.56-.54-.06-.93-.55-.86-1.09.06-.54.55-.92,1.09-.86,3.82.44,6.7,3.67,6.7,7.52v12.34c0,.54-.44.98-.98.98Z"/><path class="cls-1" d="m15.6,13.13v3.75c0,.89.72,1.61,1.61,1.61s1.61-.72,1.61-1.61v-3.75c0-.89-.72-1.61-1.61-1.61s-1.61.72-1.61,1.61Z"/><path class="cls-1" d="m31.63,13.13v3.75c0,.89.72,1.61,1.61,1.61s1.61-.72,1.61-1.61v-3.75c0-.89-.72-1.61-1.61-1.61s-1.61.72-1.61,1.61Z"/></svg>